<svg xmlns="http://www.w3.org/2000/svg" viewBox="0 0 107.94 81.78"><defs><style>.cls-1{fill:#f9232a;}.cls-2{fill:#231815;}.cls-3{fill:#97ff00;}</style></defs><g id="레이어_2" data-name="레이어 2"><g id="레이어_1-2" data-name="레이어 1"><polygon class="cls-1" points="2 76.12 2 67.35 14.69 67.35 14.69 64.17 5.33 64.17 5.33 43.48 15.32 43.48 15.32 55.47 34.23 55.47 34.23 64.17 24.69 64.17 24.69 67.35 37.41 67.35 37.41 76.12 2 76.12"/><path class="cls-2" d="M13.32,45.48v12H32.23v4.7H22.69v7.18H35.42v4.77H4V69.35H16.69V62.17H7.33V45.48h6m4-4h-14V65.35H0V78.12H39.42V65.35H36.23V53.47H17.32v-12Z"/><path class="cls-1" d="M60.35,79.64V78.12H52.62v-6.4a77.08,77.08,0,0,1-11.25.62H36.85V53.58h7.44v-.74H36.82V44.15h15.8V41.48h7.73V41H70V79.64ZM46.63,63.4a56.24,56.24,0,0,0,6-.57v-.59h-6Z"/><path class="cls-2" d="M68,43V77.63H62.35V60.5H60.17V76.12H54.62V43.48h5.55V55.77h2.18V43H68m-16,3.19V60.24H44.63v5.22a60.67,60.67,0,0,0,8.4-.67l.4,4.78a70.34,70.34,0,0,1-12.06.78H38.85V55.58h7.44V50.84H38.82V46.15H52.06M72,39H58.35v.52H50.62v2.67H34.82V54.84h0V74.35h6.52A88.93,88.93,0,0,0,50.62,74v6.14h7.73v1.51H72V39Z"/><path class="cls-1" d="M88.1,79.78c-8.6,0-13.95-3.43-13.95-9,0-3.14,1.72-5.6,4.78-7.14H70.82V43.22h9.92V47h1.18V43.22h9.7V41h10v7.73h4.33v8.85h-4.33V65.2H99.5A7.34,7.34,0,0,1,102,70.83C102,76.35,96.69,79.78,88.1,79.78Zm-3.63-8.94a13.1,13.1,0,0,0,3.63.35,12.82,12.82,0,0,0,3.6-.35,13,13,0,0,0-3.6-.34A13.33,13.33,0,0,0,84.47,70.84Z"/><path class="cls-2" d="M99.61,43v7.73h4.33v4.85H99.61V63.2h-6V43h6m-9.77,2.22V61.69h-17V45.22h5.92V49h5.18V45.22h5.92M78.74,57.06h5.18V53.55H78.74v3.51m9.36,6.81c7.25,0,11.92,2.59,11.92,7s-4.67,7-11.92,7-11.95-2.59-11.95-7,4.66-7,11.95-7m0,9.32c4,0,6-.66,6-2.36s-2-2.33-6-2.33-6,.66-6,2.33,2,2.36,6,2.36M103.61,39h-14v2.22H68.82V65.69H73.7a9.28,9.28,0,0,0-1.55,5.14c0,5,4.18,11,15.95,11s15.92-5.9,15.92-11a9.28,9.28,0,0,0-.74-3.63h.33V59.58h4.33V46.73h-4.33V39Z"/><path class="cls-3" d="M19,37.12V28.35H29.53V22.26l-7.2.37-1.27-9,11.65-.32H22.42V4.59H51.77V9.74a72.46,72.46,0,0,1-1.71,17.15l-.32,1.46h4.7v8.77Zm27.94-8.77-7.14-.77.49-2.19c.3-1.34.54-2.6.72-3.72l-1.47.07v6.61Z"/><path class="cls-2" d="M49.77,6.59V9.48a70.74,70.74,0,0,1-1.66,17l-5.89-.63c.52-2.29.85-4.4,1.11-6.29l-19.28,1-.7-5L43.74,15c.07-1.33.11-2.55.11-3.7H24.42V6.59H49.77M37.52,22.39v8H52.44v4.77H21V30.35H31.53v-8h6M53.77,2.59H20.42v9l-1.65.05.62,4.43.7,5,.51,3.62,3.66-.18,3.27-.17v2H17V39.12H56.44V26.35H52.22A74.23,74.23,0,0,0,53.77,9.74V2.59Z"/><path class="cls-3" d="M58.5,40.19V24.31h.28A10.71,10.71,0,0,1,53.39,15c0-6.25,5-11,11.66-11,5.29,0,9.55,3,11.06,7.36V2h10V30.72h-10V18.56a11.12,11.12,0,0,1-7.62,7v6H86.92v8.7Zm6.55-27c-1.6,0-1.81,1-1.81,1.81a1.81,1.81,0,0,0,3.62,0C66.86,14.18,66.66,13.22,65.05,13.22Z"/><path class="cls-2" d="M84.11,4V28.72h-6V4h6M65.05,6.07c5.4,0,9.66,3.78,9.66,9s-4.26,9-9.66,9-9.66-3.81-9.66-9,4.26-9,9.66-9m0,12.77A3.55,3.55,0,0,0,68.86,15a3.81,3.81,0,0,0-7.62,0,3.55,3.55,0,0,0,3.81,3.81m1.44,7.47v7.18H84.92v4.7H60.5V26.31h6M88.11,0h-14V5.26a14.08,14.08,0,0,0-9.06-3.19c-7.66,0-13.66,5.69-13.66,13A12.62,12.62,0,0,0,56.5,25.2v17H88.92V29.49h-.81V0ZM70.49,27a13.65,13.65,0,0,0,3.62-2.15v4.69H70.49V27Z"/></g></g></svg>