<svg xmlns="http://www.w3.org/2000/svg" viewBox="0 0 102.73 78.19"><defs><style>.cls-1{fill:#97ff00;}.cls-2{fill:#231815;}.cls-3{fill:#f9232a;}</style></defs><g id="레이어_2" data-name="레이어 2"><g id="레이어_1-2" data-name="레이어 1"><path class="cls-1" d="M18.06,33.8V27H28.68v-7.4l-7.41.39-1.07-7,20.22-.66c0-.42,0-.84,0-1.25h-19V4.24H48.13V8.92a68.79,68.79,0,0,1-1.55,16l-.28,1.35-7.71-.95L39,23.64c.38-1.64.68-3.21.88-4.69l-3.43.19V27H51V33.8Z"/><path class="cls-2" d="M46.63,5.74V8.65a68,68,0,0,1-1.51,15.91L40.44,24a49,49,0,0,0,1.11-6.63l-19,1-.61-4,19.9-.64c.11-1.52.11-2.92.11-4.21h-19V5.74H46.63M34.93,20.53v7.92H49.54V32.3h-30V28.45H30.18V20.53h4.75M49.63,2.74H19.94v8.7l-1.48.05L19,14.83l.61,4L20,21.51l2.72-.14,4.47-.24v4.32H16.56V35.3h36V25.45H48l.06-.26A70.31,70.31,0,0,0,49.63,8.92V2.74ZM37.93,20.56h.16c-.05.28-.1.56-.16.84v-.83Z"/><path class="cls-1" d="M56.65,37V23h2.28a9.7,9.7,0,0,1-7.28-9.44c0-5.66,4.53-9.92,10.53-9.92s10.5,4.26,10.5,9.92a9.77,9.77,0,0,1-8.28,9.68v7.07H82.54V37Zm5.53-26.35a2.66,2.66,0,0,0-2.89,2.82,2.67,2.67,0,0,0,2.89,2.78A2.63,2.63,0,0,0,65,13.51,2.61,2.61,0,0,0,62.18,10.69Zm11.75,17.6V1.5h7.79V28.29Z"/><path class="cls-2" d="M80.22,3V26.79H75.43V3h4.79m-18,2.09c5.08,0,9,3.53,9,8.42s-3.92,8.39-9,8.39-9-3.57-9-8.39,4-8.42,9-8.42m0,12.7a4.1,4.1,0,0,0,4.36-4.28,4.09,4.09,0,0,0-4.36-4.32,4.13,4.13,0,0,0-4.39,4.32,4.14,4.14,0,0,0,4.39,4.28m.72,6.66v7.31H81v3.78H58.15V24.45H62.9M83.22,0H72.43V7.39a11.94,11.94,0,0,0-10.25-5.3c-6.86,0-12,4.91-12,11.42a11.12,11.12,0,0,0,5,9.3V38.54H84V28.76h-.82V0Zm-21,14.79c-1.39,0-1.39-1-1.39-1.28s0-1.32,1.39-1.32c1.19,0,1.36.64,1.36,1.32,0,.38,0,1.28-1.36,1.28Zm3.72,9.57a11.75,11.75,0,0,0,6.53-4.84v9.24H65.9v-4.4Z"/><polygon class="cls-3" points="1.5 72.91 1.5 66.06 14.13 66.06 14.13 61.5 4.88 61.5 4.88 42.98 12.63 42.98 12.63 54.72 31.35 54.72 31.35 61.5 21.89 61.5 21.89 66.06 34.52 66.06 34.52 72.91 1.5 72.91"/><path class="cls-2" d="M11.13,44.48V56.22H29.85V60H20.39v7.56H33v3.85H3V67.56H15.63V60H6.38V44.48h4.75m3-3H3.38V63h9.25v1.56H0v9.85H36V64.56H23.39V63h9.46V53.22H14.13V41.48Z"/><path class="cls-3" d="M58.56,76.58V75H51.14V68.51a72.58,72.58,0,0,1-11.78.76H35.52V52.77h7.92V50.48h-8V43.67H51V59.52H43.13v2.82a65.42,65.42,0,0,0,7.49-.69l.52-.08V41h7.42v-.61h7.5V76.58Z"/><path class="cls-2" d="M64.56,41.93V75.08h-4.5V58.27h-3V73.53H52.64v-31h4.43V54.45h3V41.93h4.5M49.51,45.17V58H41.63v5.87a72.14,72.14,0,0,0,9.21-.76L51.2,67a71,71,0,0,1-11.84.79H37V54.27h7.92V49H37V45.17H49.51m18.05-6.24H57.06v.61H49.64v2.63H34V52h0V70.77h5.34a79.73,79.73,0,0,0,10.28-.53v6.29h7.42v1.55h10.5V38.93Z"/><path class="cls-3" d="M84.47,76.69c-7.83,0-12.7-3.06-12.7-8,0-3.87,3-6.59,8.09-7.57H68.71V42.59h7.68v4.1h3.52v-4.1h7.68V60.91c.51.06,1,.14,1.5.23V40.5h7.75v7.7h4.39v6.89H96.84V63H94a6.63,6.63,0,0,1,3.21,5.7C97.2,73.63,92.32,76.69,84.47,76.69Zm0-9.25c-3.43,0-5,.66-5,1.27S81,70,84.47,70s5-.66,5-1.27S87.91,67.44,84.47,67.44Zm-4.56-13v-1.1H76.39v1.1Z"/><path class="cls-2" d="M95.34,42v7.7h4.39v3.89H95.34v7.92H90.59V42h4.75m-9.25,2.09V59.64H70.21V44.09h4.68v4.1h6.52v-4.1h4.68M74.89,55.93h6.52v-4.1H74.89v4.1m9.58,6.3c6.91,0,11.23,2.41,11.23,6.48s-4.32,6.48-11.23,6.48-11.2-2.45-11.2-6.48,4.32-6.48,11.2-6.48m0,9.25c4.24,0,6.51-.9,6.51-2.77s-2.27-2.77-6.51-2.77S78,66.84,78,68.71s2.26,2.77,6.48,2.77M98.34,39H87.59v2.09H78.41v4.1h-.52v-4.1H67.21V62.64H73a8.09,8.09,0,0,0-2.72,6.07c0,4.58,3.73,9.48,14.2,9.48s14.23-4.9,14.23-9.48a8,8,0,0,0-1.17-4.2h.81V56.59h4.39V46.7H98.34V39Z"/></g></g></svg>