<svg xmlns="http://www.w3.org/2000/svg" viewBox="0 0 207.26 39.43"><defs><style>.cls-1{fill:#97ff00;}.cls-2{fill:#231815;}.cls-3{fill:#fff;}</style></defs><g id="레이어_2" data-name="레이어 2"><g id="레이어_1-2" data-name="레이어 1"><path class="cls-1" d="M1,37.83V11.75H8.06l.27,2.68a8.38,8.38,0,0,1,6.27-3.28,7.75,7.75,0,0,1,3.22.59l.76.31-1.5,7.36L16,19.08a6.69,6.69,0,0,0-2.2-.34c-.88,0-3.08.38-4.54,3.92V37.83Z"/><path class="cls-2" d="M14.6,12.15a6.86,6.86,0,0,1,2.84.51l-1.12,5.46a7.86,7.86,0,0,0-2.5-.38c-1.89,0-4.17,1.24-5.54,4.73V36.83H2V12.75H7.16L7.59,17h.17c1.76-3.14,4.34-4.86,6.84-4.86m0-2a8.69,8.69,0,0,0-5.48,2.1L9,10.75H0V38.83H10.28v-16c.86-2,2.17-3.13,3.54-3.13a5.67,5.67,0,0,1,1.9.29l2.11.67.45-2.17,1.12-5.46.33-1.62-1.53-.64a8.83,8.83,0,0,0-3.6-.66Z"/><path class="cls-1" d="M19.1,37.83V11.75h8.28V37.83ZM23.28,9.88A4.52,4.52,0,0,1,18.5,5.44,4.47,4.47,0,0,1,23.28,1,4.45,4.45,0,0,1,28,5.44,4.5,4.5,0,0,1,23.28,9.88Z"/><path class="cls-2" d="M23.28,2A3.46,3.46,0,0,1,27,5.44a3.51,3.51,0,0,1-3.75,3.44A3.51,3.51,0,0,1,19.5,5.44,3.46,3.46,0,0,1,23.28,2m3.1,10.75V36.83H20.1V12.75h6.28M23.28,0A5.42,5.42,0,0,0,22,10.75H18.1V38.83H28.38V10.75H24.59A5.42,5.42,0,0,0,23.28,0Z"/><path class="cls-1" d="M42.76,38.43C35.14,38.43,30,33,30,24.83c0-9,6.69-13.68,13.3-13.68A11.59,11.59,0,0,1,51,14.05l.71.61-4.2,5.7-.82-.7a4.48,4.48,0,0,0-3.05-1.35c-3.13,0-5.15,2.56-5.15,6.52s2,6.44,5,6.44a6.56,6.56,0,0,0,4-1.7l.89-.75,3.53,5.89-.63.55A13,13,0,0,1,42.76,38.43Z"/><path class="cls-2" d="M43.32,12.15a10.54,10.54,0,0,1,7,2.66l-3,4.09a5.49,5.49,0,0,0-3.7-1.59c-3.65,0-6.15,3-6.15,7.52s2.5,7.44,6,7.44a7.54,7.54,0,0,0,4.69-1.93l2.49,4.17a11.94,11.94,0,0,1-7.87,2.92C36.1,37.43,31,32.79,31,24.83s5.77-12.68,12.3-12.68m0-2c-7.1,0-14.3,5-14.3,14.68,0,8.6,5.65,14.6,13.74,14.6A14,14,0,0,0,52,36l1.24-1.1-.85-1.42-2.5-4.17-1.2-2-1.8,1.5a5.51,5.51,0,0,1-3.4,1.47c-2.42,0-4-2.13-4-5.44,0-2.67,1.09-5.52,4.15-5.52A3.49,3.49,0,0,1,46,20.42l1.63,1.4,1.28-1.73,3-4.09,1.11-1.5-1.42-1.21a12.55,12.55,0,0,0-8.31-3.14Z"/><path class="cls-1" d="M63.32,38.43c-6.25,0-12.57-4.67-12.57-13.6s6.32-13.68,12.57-13.68,12.56,4.7,12.56,13.68S69.56,38.43,63.32,38.43Zm0-20.12c-3.82,0-4.12,5-4.12,6.52s.3,6.44,4.12,6.44,4.11-4.93,4.11-6.44S67.14,18.31,63.32,18.31Z"/><path class="cls-2" d="M63.32,12.15c6,0,11.56,4.64,11.56,12.68s-5.54,12.6-11.56,12.6-11.57-4.64-11.57-12.6S57.3,12.15,63.32,12.15m0,20.12c3.26,0,5.11-2.92,5.11-7.44s-1.85-7.52-5.11-7.52-5.12,3-5.12,7.52,1.85,7.44,5.12,7.44m0-22.12c-6.74,0-13.57,5-13.57,14.68s7,14.6,13.57,14.6,13.56-5.11,13.56-14.6S70.06,10.15,63.32,10.15Zm0,20.12c-2.82,0-3.12-3.8-3.12-5.44s.3-5.52,3.12-5.52,3.11,3.86,3.11,5.52-.3,5.44-3.11,5.44Z"/><path class="cls-3" d="M86.19,38.43a16.22,16.22,0,0,1-9.8-3.63l-.71-.6,4-5.55.81.64a9.44,9.44,0,0,0,5.83,2.41c2.49,0,2.49-1.16,2.49-1.54,0-1-1.95-1.73-3.83-2.46l-.57-.22c-2-.74-7.21-2.74-7.21-7.94,0-4.94,4.09-8.39,9.94-8.39A14.41,14.41,0,0,1,96,14.31l.8.6-4,5.41-.8-.56c-1.88-1.32-3.27-1.88-4.63-1.88s-2.18.44-2.18,1.32,1.67,1.48,3.43,2.12l.82.3c2.76,1,7.36,2.78,7.36,8.2C96.78,34.11,93.51,38.43,86.19,38.43Z"/><path class="cls-2" d="M87.18,12.15a13.48,13.48,0,0,1,8.21,3l-2.83,3.83a9.3,9.3,0,0,0-5.21-2.06c-2.15,0-3.18.94-3.18,2.32,0,1.76,2.37,2.41,4.9,3.35,3.19,1.21,6.71,2.8,6.71,7.27,0,4.21-3.31,7.61-9.59,7.61A15.19,15.19,0,0,1,77,34l2.89-4a10.4,10.4,0,0,0,6.44,2.62c2.41,0,3.49-1,3.49-2.54,0-1.8-2.5-2.62-5-3.61-3.06-1.16-6.58-3-6.58-7,0-4.34,3.52-7.39,8.94-7.39m0-2c-6.44,0-10.94,3.86-10.94,9.39,0,5.89,5.71,8.06,7.87,8.88l.55.21a11.32,11.32,0,0,1,3.19,1.58c0,.33-.54.49-1.49.49a8.54,8.54,0,0,1-5.21-2.2l-1.63-1.27L78.3,28.9l-2.88,4-1.1,1.51,1.43,1.2a17.06,17.06,0,0,0,10.44,3.86c8,0,11.59-4.83,11.59-9.61,0-6.11-5.2-8.08-8-9.14l-.83-.3a11.28,11.28,0,0,1-2.77-1.25v0a2.28,2.28,0,0,1,1.17-.21,7.3,7.3,0,0,1,4.06,1.7L93,21.7l1.16-1.57L97,16.31l1.19-1.61-1.6-1.19a15.43,15.43,0,0,0-9.41-3.36Z"/><path class="cls-3" d="M106.83,38.43A16.22,16.22,0,0,1,97,34.8l-.72-.6,4-5.55.82.64A9.44,9.44,0,0,0,107,31.7c2.49,0,2.49-1.16,2.49-1.54,0-1-1.95-1.73-3.84-2.46l-.56-.22c-2-.74-7.21-2.74-7.21-7.94,0-4.94,4.09-8.39,9.94-8.39a14.41,14.41,0,0,1,8.81,3.16l.8.6-4,5.41-.8-.56c-1.88-1.32-3.27-1.88-4.63-1.88s-2.18.44-2.18,1.32,1.67,1.48,3.43,2.12l.82.3c2.76,1,7.36,2.78,7.36,8.2C117.42,34.11,114.15,38.43,106.83,38.43Z"/><path class="cls-2" d="M107.82,12.15a13.48,13.48,0,0,1,8.21,3l-2.83,3.83A9.3,9.3,0,0,0,108,16.88c-2.15,0-3.18.94-3.18,2.32,0,1.76,2.37,2.41,4.9,3.35,3.19,1.21,6.71,2.8,6.71,7.27,0,4.21-3.31,7.61-9.59,7.61A15.19,15.19,0,0,1,97.67,34l2.88-4A10.45,10.45,0,0,0,107,32.7c2.41,0,3.49-1,3.49-2.54,0-1.8-2.5-2.62-5-3.61-3.06-1.16-6.58-3-6.58-7,0-4.34,3.52-7.39,8.94-7.39m0-2c-6.44,0-10.94,3.86-10.94,9.39,0,5.89,5.71,8.06,7.87,8.88l.55.21c1.07.42,2.85,1.11,3.18,1.58,0,.33-.53.49-1.48.49a8.58,8.58,0,0,1-5.22-2.2l-1.63-1.27L98.94,28.9l-2.88,4L95,34.37l1.43,1.2a17.06,17.06,0,0,0,10.44,3.86c8,0,11.59-4.83,11.59-9.61,0-6.11-5.2-8.08-8-9.14l-.84-.3a11.36,11.36,0,0,1-2.76-1.25v0a2.28,2.28,0,0,1,1.17-.21,7.3,7.3,0,0,1,4.06,1.7l1.59,1.12,1.16-1.57,2.84-3.82,1.19-1.61-1.6-1.19a15.43,15.43,0,0,0-9.41-3.36Z"/><path class="cls-3" d="M127.73,38.43c-3.83,0-8.4-1.84-8.4-10.63v-16h8.33V27c0,3.74,1,4,2.35,4,1.51,0,2.52-.6,3.9-2.35V11.75h8.32V37.83h-7l-.33-2.38A10.06,10.06,0,0,1,127.73,38.43Z"/><path class="cls-2" d="M141.23,12.75V36.83h-5.16l-.47-3.44h-.17c-2.07,2.45-4.39,4-7.7,4-5.16,0-7.4-3.61-7.4-9.63v-15h6.33V27c0,3.74,1,5,3.35,5,2,0,3.27-.86,4.9-3V12.75h6.32m2-2H132.91V28.31C131.73,29.74,131,30,130,30c-.76,0-1.35,0-1.35-3V10.75H118.33V27.8c0,10.12,5.89,11.63,9.4,11.63a10.69,10.69,0,0,0,6.4-2.06l.2,1.46h8.9V10.75Z"/><path class="cls-1" d="M156.15,38.43c-4.06,0-8.91-1.74-8.91-10V18.74h-3.4V12.13l3.8-.31.74-6.52h7.18v6.45h5.94v7h-5.94V28.4c0,2.68,1.09,3,2.27,3a6.17,6.17,0,0,0,2-.44l1.09-.44,1.49,6.63-.86.29A16.45,16.45,0,0,1,156.15,38.43Z"/><path class="cls-2" d="M154.56,6.3v6.45h5.94v5h-5.94V28.4c0,2.75,1.12,4,3.27,4a7.06,7.06,0,0,0,2.37-.51l1,4.6a15.59,15.59,0,0,1-5.08.9c-5.72,0-7.91-3.61-7.91-9V17.74h-3.4V13.05l3.7-.3.73-6.45h5.29m2-2h-9.07l-.2,1.77-.55,4.82-2.06.17-1.84.15v8.53h3.4V28.4c0,7.11,3.52,11,9.91,11a17.89,17.89,0,0,0,5.71-1l1.71-.57-.39-1.77-1-4.6-.52-2.29-2.18.87a5,5,0,0,1-1.62.37c-.65,0-1.27,0-1.27-2V19.74h5.94v-9h-5.94V4.3Z"/><path class="cls-1" d="M170.7,38.43a7.87,7.87,0,0,1-8.14-8.14c0-7,7.15-9,13.75-9.78-.28-1.59-1.22-2.29-3-2.29a12.77,12.77,0,0,0-6.12,2.15l-.89.51L163.09,15l.8-.5a20.08,20.08,0,0,1,10.59-3.33c6.61,0,10.25,4.12,10.25,11.62V37.83h-7L177.39,36A11.2,11.2,0,0,1,170.7,38.43Zm5.71-12c-5.83,1-5.83,2.75-5.83,3.36s0,1.71,2.18,1.71a5,5,0,0,0,3.65-1.79Z"/><path class="cls-2" d="M174.48,12.15c6.11,0,9.25,3.65,9.25,10.62V36.83h-5.16l-.48-2.58H178a11.27,11.27,0,0,1-7.26,3.18,6.84,6.84,0,0,1-7.14-7.14c0-5.16,4.17-7.87,13.85-8.9-.09-2.36-1.12-4.17-4.09-4.17-2.24,0-4.38,1-6.62,2.28l-2.28-4.17a19.27,19.27,0,0,1,10.06-3.18m-1.72,20.34c1.81,0,3.14-.86,4.65-2.37V25.26c-5.85.78-7.83,2.37-7.83,4.52,0,1.89,1.33,2.71,3.18,2.71m1.72-22.34a21.09,21.09,0,0,0-11.12,3.48l-1.6,1,.9,1.66,2.28,4.17,1,1.8,1.77-1a12,12,0,0,1,5.62-2,2.06,2.06,0,0,1,1.58.47c-6.63,1-13.34,3.28-13.34,10.6a8.84,8.84,0,0,0,9.14,9.14,11.38,11.38,0,0,0,6-1.78l.22,1.18h8.83V22.77c0-8.14-4-12.62-11.25-12.62Zm-1.72,20.34c-1.18,0-1.18-.35-1.18-.71,0-1.07,2-1.74,3.83-2.15v1.63a3.75,3.75,0,0,1-2.65,1.23Z"/><path class="cls-1" d="M188.53,37.83V11.75h7.07l.27,2.68a8.36,8.36,0,0,1,6.26-3.28,7.75,7.75,0,0,1,3.22.59l.76.31-1.5,7.36-1.06-.33a6.67,6.67,0,0,0-2.19-.34c-.89,0-3.09.38-4.55,3.92V37.83Z"/><path class="cls-2" d="M202.13,12.15a6.86,6.86,0,0,1,2.84.51l-1.12,5.46a7.79,7.79,0,0,0-2.49-.38c-1.9,0-4.17,1.24-5.55,4.73V36.83h-6.28V12.75h5.16l.43,4.26h.17c1.77-3.14,4.35-4.86,6.84-4.86m0-2a8.71,8.71,0,0,0-5.48,2.1l-.15-1.5h-9V38.83h10.28v-16c.86-2,2.17-3.13,3.55-3.13a5.65,5.65,0,0,1,1.89.29l2.11.67.45-2.17,1.12-5.46.33-1.63-1.53-.63a8.83,8.83,0,0,0-3.6-.66Z"/></g></g></svg>